<?xml version="1.0" encoding="iso-8859-1"?>
<!-- Generator: Adobe Illustrator 19.0.0, SVG Export Plug-In . SVG Version: 6.00 Build 0)  -->
<svg version="1.1" id="Layer_1" xmlns="http://www.w3.org/2000/svg" xmlns:xlink="http://www.w3.org/1999/xlink" x="0px" y="0px"
	 viewBox="0 0 512 512" style="enable-background:new 0 0 512 512;" xml:space="preserve">
<g>
	<g>
		<path d="M437.333,106.667H384V53.333c0-2.833-1.125-5.542-3.125-7.542L338.208,3.125c-2-2-4.708-3.125-7.542-3.125H181.333
			c-2.833,0-5.542,1.125-7.542,3.125l-42.667,42.667c-2,2-3.125,4.708-3.125,7.542v53.333H74.667
			c-5.896,0-10.667,4.771-10.667,10.667v352C64,492.865,83.135,512,106.667,512h298.667C428.865,512,448,492.865,448,469.333v-352
			C448,111.438,443.229,106.667,437.333,106.667z M341.333,36.417l21.333,21.333v48.917h-21.333V36.417z M192,21.333h128v21.333H192
			V21.333z M192,64h128v42.667H192V64z M149.333,57.75l21.333-21.333v70.25h-21.333V57.75z M426.667,469.333
			c0,11.76-9.573,21.333-21.333,21.333H106.667c-11.76,0-21.333-9.573-21.333-21.333V128h341.333V469.333z"/>
	</g>
</g>
<g>
</g>
<g>
</g>
<g>
</g>
<g>
</g>
<g>
</g>
<g>
</g>
<g>
</g>
<g>
</g>
<g>
</g>
<g>
</g>
<g>
</g>
<g>
</g>
<g>
</g>
<g>
</g>
<g>
</g>
</svg>
