<svg id="Capa_1" data-name="Capa 1" xmlns="http://www.w3.org/2000/svg" viewBox="0 0 26.99 25.76"><defs><style>.cls-1{fill:#fff;}</style></defs><title>dice-white</title><path class="cls-1" d="M24.84.62H2.15A2.15,2.15,0,0,0,0,2.76V24.23a2.15,2.15,0,0,0,2.15,2.15h22.7A2.15,2.15,0,0,0,27,24.23V2.76A2.15,2.15,0,0,0,24.84.62ZM6.17,8.78A2.78,2.78,0,1,1,8.94,6,2.78,2.78,0,0,1,6.17,8.78Zm14.78,7.49a2.78,2.78,0,1,1,2.78-2.78A2.78,2.78,0,0,1,20.95,16.27Zm-14.74,0A2.78,2.78,0,1,1,9,13.49,2.78,2.78,0,0,1,6.21,16.27Zm15,7.35a2.78,2.78,0,1,1,2.78-2.78A2.78,2.78,0,0,1,21.17,23.62ZM21,8.83a2.78,2.78,0,1,1,2.78-2.78A2.78,2.78,0,0,1,21,8.83ZM6.24,23.56A2.78,2.78,0,1,1,9,20.78,2.78,2.78,0,0,1,6.24,23.56Z" transform="translate(0 -0.62)"/></svg>