<?xml version="1.0" encoding="utf-8"?>
<!-- Generator: Adobe Illustrator 21.0.0, SVG Export Plug-In . SVG Version: 6.00 Build 0)  -->
<svg version="1.1" id="Capa_1" xmlns="http://www.w3.org/2000/svg" xmlns:xlink="http://www.w3.org/1999/xlink" x="0px" y="0px"
	 viewBox="0 0 297 297" style="enable-background:new 0 0 297 297;" xml:space="preserve">
<style type="text/css">
	.st0{fill:#FFFFFF;}
</style>
<path class="st0" d="M296,108.2c0-38-30.9-68.9-68.8-68.9c-1.6,0-3.3,0.1-5,0.2C205.9,15,178.2,0,148.5,0c-29.7,0-57.4,15-73.7,39.6
	c-1.7-0.1-3.3-0.2-5-0.2C31.8,39.4,1,70.3,1,108.2c0,34.6,25.7,63.4,59,68.1v95.2c0,14.1,11.4,25.5,25.5,25.5h126
	c14.1,0,25.5-11.4,25.5-25.5v-95.2C270.3,171.6,296,142.9,296,108.2z M211.5,277.4h-126c-3.2,0-5.9-2.7-5.9-5.9v-95.1
	c9.6-1.4,18.7-4.7,26.9-9.9c12.6,6.8,27,10.7,42,10.7s29.3-3.8,42-10.6c8.2,5.2,17.3,8.6,26.9,9.9v95.1
	C217.4,274.7,214.7,277.4,211.5,277.4z M227.2,157.5c-6.6,0-13-1.3-18.9-3.8c11.9-10.9,20.9-25.1,25.5-41.5
	c1.4-5.2-1.6-10.6-6.8-12.1c-5.2-1.4-10.6,1.6-12.1,6.8c-8.2,29.7-35.5,50.5-66.4,50.5S90.4,136.7,82.1,107
	c-1.4-5.2-6.8-8.3-12.1-6.8c-5.2,1.4-8.3,6.8-6.8,12.1c4.5,16.3,13.5,30.5,25.5,41.5c-5.9,2.5-12.3,3.8-18.9,3.8
	c-27.1,0-49.2-22.1-49.2-49.3C20.6,81.1,42.7,59,69.8,59c2.7,0,5.6,0.2,8.4,0.7c4.1,0.7,8.2-1.2,10.2-4.9
	c12.2-21.7,35.2-35.2,60.1-35.2s47.9,13.5,60.1,35.2c2,3.6,6.1,5.6,10.2,4.9c2.8-0.5,5.7-0.7,8.4-0.7c27.1,0,49.2,22.1,49.2,49.3
	C276.4,135.4,254.3,157.5,227.2,157.5z"/>
</svg>
