<?xml version="1.0" encoding="utf-8"?>
<!-- Generator: Adobe Illustrator 21.0.0, SVG Export Plug-In . SVG Version: 6.00 Build 0)  -->
<svg version="1.1" id="Capa_1" xmlns="http://www.w3.org/2000/svg" xmlns:xlink="http://www.w3.org/1999/xlink" x="0px" y="0px"
	 viewBox="0 0 964.5 964.5" style="enable-background:new 0 0 964.5 964.5;" xml:space="preserve">
<style type="text/css">
	.st0{fill:#ED3851;}
</style>
<g>
	<g>
		<path class="st0" d="M956.1,345.7c7.4-18.2,9.7-39.5,7.7-59c-2.4-23-9.1-45.4-22.1-64.8l-57,33.3l8,14.1c2.3,6.2,4,12.6,5.2,19.1
			c0.6,6.7,0.6,13.3,0.1,20c-1.1,6.1-2.7,12.1-4.9,18c-2.7,5.6-5.8,10.9-9.4,16c-2.6,3.1-5.3,5.9-8.2,8.7c-0.3-0.6-0.6-1.2-0.9-1.8
			c-21.9-42.6-53.1-80.8-92.7-113.4c-80.2-66-186.3-102.4-299-102.4c-32.9,0-65.2,3.1-96.5,9.3C363.4,118.2,333,99.8,296,88
			c-31.5-10-67.2-15.1-106.1-15.1c-34.6,0-59.4,4.2-60.5,4.3l-38.1,6.5l58.9,192.9c-15.4,18.2-28.9,37.6-40.1,58.1L0,365.7v249.7
			l110.2,31c22.9,41.9,55.3,79.6,94.8,110.5l-17.8,134.7h242.3l31.1-44.5c7.5,0.3,14.9,0.5,22.4,0.5c31.9,0,63.6-3,94.5-8.8
			l34.7,52.8h242.9l-25.5-193c23.4-27.4,42-57.2,55.4-89c16.1-38.2,24.2-78.2,24.2-119.1c0-25.6-3.2-50.7-9.4-75.2
			c8-5,15.5-10.9,22.6-17.6C937.8,383.1,948.3,365.2,956.1,345.7z M769,664.4l-11,11.7l19.5,147.5H648.9l-40.4-61.6l-23.2,5.6
			c-33,7.9-67.4,12-102.2,12c-12.2,0-24.5-0.5-36.5-1.5l-19.5-1.6L394,823.6H264.8l13-98.2l-17-11.8
			c-42.3-29.5-75.7-67.8-96.6-110.8l-6.7-13.7L68,563.9V417.2l89.5-25.2l6.7-13.7c12.3-25.2,28.7-48.7,48.8-69.9l13.7-14.4
			l-46.7-153c3.2-0.1,6.5-0.1,10-0.1c31.5,0,61,4.1,85.5,11.9c31.3,10,55,26,70.6,47.6l13.4,18.6l22.3-5.5c32.4-8,66.5-12,101.3-12
			c197.5,0,358.2,129.7,358.2,289.1C841.2,553.8,816.2,613.9,769,664.4z"/>
		<circle class="st0" cx="282.9" cy="382.5" r="34.6"/>
		<path class="st0" d="M435.4,244.6l15,66.3c0.2-0.1,24.7-5.3,58.5-3.9c31.1,1.3,76.4,8.8,115.1,36.9l40-55
			C564.3,216.6,440.6,243.4,435.4,244.6z"/>
	</g>
</g>
</svg>
