<svg id="Calque_1" data-name="Calque 1" xmlns="http://www.w3.org/2000/svg" viewBox="0 0 152.25 145"><defs><style>.cls-1{fill:#fff;}</style></defs><title>logo</title><path class="cls-1" d="M59.79,55.18A59.83,59.83,0,0,1,48.3,47.35a14.41,14.41,0,0,1,.91-12.58,2.44,2.44,0,0,0-4-2.74,18.69,18.69,0,0,0-2.76,9.33,43.77,43.77,0,0,1-3.65-5.11C36.15,25.7,41.7,19.84,42,19.58a2.44,2.44,0,0,0-3.45-3.45A19.82,19.82,0,0,0,34,24.45,43.06,43.06,0,0,1,34.56,5a2.44,2.44,0,1,0-4.74-1.15C26.53,17.41,29,28.19,33.27,36.34c-8.11-2.85-9.89-8.62-10-9a2.44,2.44,0,0,0-4.71,1.27c.12.46,3.14,11.14,18.4,13.61a50.59,50.59,0,0,0,3.73,4.51,60.65,60.65,0,0,0,14.74,11.5"/><path class="cls-1" d="M97.26,58.29A60.64,60.64,0,0,0,112,46.79a50.66,50.66,0,0,0,3.73-4.51C131,39.81,134,29.13,134.14,28.67a2.44,2.44,0,1,0-4.71-1.28c-.08.29-1.85,6.1-10,9,4.27-8.15,6.73-18.94,3.45-32.46A2.44,2.44,0,0,0,118.16,5a43.06,43.06,0,0,1,.53,19.42,19.82,19.82,0,0,0-4.48-8.32,2.44,2.44,0,1,0-3.44,3.46c.06.06,5.83,6,3.18,16.65a43.76,43.76,0,0,1-3.65,5.11A18.69,18.69,0,0,0,107.54,32a2.44,2.44,0,1,0-4,2.75,14.43,14.43,0,0,1,.91,12.57A56.37,56.37,0,0,1,93.08,55"/><path class="cls-1" d="M13.25,141.82a.9.9,0,0,1-.35-1.73C19.54,137.27,43.78,128,76.38,128a183.37,183.37,0,0,1,63.41,11.44.9.9,0,0,1-.64,1.67,181.57,181.57,0,0,0-62.77-11.32c-32.26,0-56.21,9.13-62.78,11.92A.88.88,0,0,1,13.25,141.82Z"/><path class="cls-1" d="M14.64,117.64l3.83-1.33,3.7,7.08-.76-5.87,4-1.38,3.06,5.07-1.49-7.85L30.76,112l1.42,12.62-4,1.38-3.63-5.79.74,6.79-4,1.38Z"/><path class="cls-1" d="M33.87,113.12A1.69,1.69,0,0,1,33,112a1.64,1.64,0,0,1,.28-1.4,2.1,2.1,0,0,1,1.24-.84,2.07,2.07,0,0,1,1.52.18,1.69,1.69,0,0,1,.61,2.52,2.12,2.12,0,0,1-1.26.85A2.05,2.05,0,0,1,33.87,113.12Zm2.76,9.69a3.89,3.89,0,0,1-1.45-2.37l-1.32-5.38,3.71-.91,1.29,5.23a.86.86,0,0,0,.37.57.79.79,0,0,0,.62.08,1.49,1.49,0,0,0,.67-.39L41.3,122a2.81,2.81,0,0,1-.89.7,5.35,5.35,0,0,1-1.25.47A3,3,0,0,1,36.64,122.81Z"/><path class="cls-1" d="M42.94,121.33a3.89,3.89,0,0,1-1.35-2.41l-1.7-8.23,3.61-1.31,1.76,8.51a1,1,0,0,0,.39.66,1.26,1.26,0,0,0,.88,0,2,2,0,0,0,.82-.39l.63,2.44a5.88,5.88,0,0,1-2.52,1.15A3,3,0,0,1,42.94,121.33Z"/><path class="cls-1" d="M50.43,120.16a4.61,4.61,0,0,1-1.81-1.46,4.84,4.84,0,0,1-.66-4.58,4.51,4.51,0,0,1,1.35-1.91,4.14,4.14,0,0,1,2.05-.93,3.43,3.43,0,0,1,1.82.16,3.06,3.06,0,0,1,1.37,1.19l-.68-4.49L57.54,107l1.85,12.28-3.75.57-.25-1.66a3,3,0,0,1-2.67,2.24A4,4,0,0,1,50.43,120.16Zm4.22-3.4a1.78,1.78,0,0,0,.32-1.32v-.07a1.62,1.62,0,0,0-.72-1.12,1.75,1.75,0,0,0-1.3-.32,1.69,1.69,0,0,0-1.17.71,1.76,1.76,0,0,0-.32,1.33,1.8,1.8,0,0,0,2,1.51A1.68,1.68,0,0,0,54.65,116.76Z"/><path class="cls-1" d="M62.52,118.86A3.38,3.38,0,0,1,61,117.74a3.32,3.32,0,0,1-.65-1.76,3.73,3.73,0,0,1,2.21-3.67,3.9,3.9,0,0,1-1.41-2.5,2.77,2.77,0,0,1,.36-1.62,3.29,3.29,0,0,1,1.27-1.24,4.75,4.75,0,0,1,2-.58,5,5,0,0,1,2,.22,3.16,3.16,0,0,1,1.44,1,2.77,2.77,0,0,1,.62,1.58,3.21,3.21,0,0,1-.47,2,3.89,3.89,0,0,1-1.61,1.46q.33.33.51.55l.81.82a11.15,11.15,0,0,0,1.29-1.69l1.93,1.56a8.63,8.63,0,0,1-1.5,2.16l2.32,2.27-3.61.29-.84-.83a5.07,5.07,0,0,1-3.15,1.45A4.51,4.51,0,0,1,62.52,118.86ZM65.76,116l-1.62-1.76a1.23,1.23,0,0,0-.59,1.2,1.13,1.13,0,0,0,.35.78,1,1,0,0,0,.8.24A1.49,1.49,0,0,0,65.76,116Zm.2-5.75a1.33,1.33,0,0,0,.13-.8.81.81,0,0,0-.27-.58.84.84,0,0,0-.64-.17q-.93.08-.87.9a1.11,1.11,0,0,0,.26.61,3.07,3.07,0,0,0,.73.61A1.74,1.74,0,0,0,66,110.24Z"/><path class="cls-1" d="M73,105.8l4,0,0,4.93,3.83,0,0-4.93,4.07,0,.09,12.38-4.07,0,0-4.86-3.83,0,0,4.86-4,0Z"/><path class="cls-1" d="M89.1,118a4,4,0,0,1-1.62-1.53,3.69,3.69,0,0,1-.48-2.12l.33-5.14,3.7.24-.32,5.08a1.26,1.26,0,0,0,.27.95,1.14,1.14,0,0,0,.81.39,1.06,1.06,0,0,0,.82-.28,1.3,1.3,0,0,0,.37-.91l.32-5.08,3.63.23-.33,5.14a3.71,3.71,0,0,1-.74,2.05,4,4,0,0,1-1.77,1.3,5.82,5.82,0,0,1-2.51.34A6,6,0,0,1,89.1,118Z"/><path class="cls-1" d="M99,110.12l3.59.46-.23,1.82a3.47,3.47,0,0,1,3.55-1.65,3.27,3.27,0,0,1,2.53,1.57,5.34,5.34,0,0,1,.54,3.51l-.57,4.46-3.75-.48.62-4.84a1.85,1.85,0,0,0-.18-1.22,1.12,1.12,0,0,0-.87-.53,1.5,1.5,0,0,0-.87.17,2,2,0,0,0-.77.71,2.61,2.61,0,0,0-.41,1.15l-.54,4.18-3.77-.48Z"/><path class="cls-1" d="M112.37,125l.79-2.56a8.48,8.48,0,0,0,1.25.35,2.13,2.13,0,0,0,1.79-.32,3.75,3.75,0,0,0,1.09-2,3.71,3.71,0,0,1-3.47.85,4.11,4.11,0,0,1-2-1,4.46,4.46,0,0,1-1.24-1.93,4.6,4.6,0,0,1-.14-2.36,4.75,4.75,0,0,1,1-2.16,4.37,4.37,0,0,1,1.87-1.33,4.11,4.11,0,0,1,2.26-.18,3.28,3.28,0,0,1,1.77.92,2.61,2.61,0,0,1,.76,1.7l.4-2,3.73.73-1.31,6.73a7,7,0,0,1-2.32,4.42,5.25,5.25,0,0,1-4.4.8A8.77,8.77,0,0,1,112.37,125Zm4.44-6.41a1.78,1.78,0,0,0,.78-1.09l0-.14a1.78,1.78,0,0,0-.33-1.29,1.74,1.74,0,0,0-2.45-.47,1.8,1.8,0,0,0-.49,2.49,1.76,1.76,0,0,0,2.45.5Z"/><path class="cls-1" d="M124.26,114.38l3.68.93-.45,1.78a3.39,3.39,0,0,1,1.48-1.25,2.77,2.77,0,0,1,1.74-.09l-.21,3a6.36,6.36,0,0,0-2.53-.25,1.22,1.22,0,0,0-1.06.93l-1.14,4.54-3.68-.93Z"/><path class="cls-1" d="M131.24,129.4l1.17-2.41a8.59,8.59,0,0,0,1.18.54,2,2,0,0,0,1.74-.05,3.84,3.84,0,0,0,1.36-2.07,3.15,3.15,0,0,1-3.44.68,3.29,3.29,0,0,1-2.15-2.08,5.34,5.34,0,0,1,.23-3.54l1.52-4.23,3.56,1.28-1.71,4.76a1.52,1.52,0,0,0,0,1.07,1.16,1.16,0,0,0,.74.7,1.19,1.19,0,0,0,1.12-.15,2.24,2.24,0,0,0,.83-1.16l1.55-4.32,3.57,1.29L140.22,126a7.13,7.13,0,0,1-2.94,4,5,5,0,0,1-4.33.18A8.82,8.82,0,0,1,131.24,129.4Z"/><path class="cls-1" d="M2.83,110.51a1.15,1.15,0,0,1-.38-2.23c.37-.13,37.4-13.17,74.84-13.17,34.37,0,66.43,10.3,72.5,12.36a1.15,1.15,0,1,1-.74,2.17c-6-2-37.76-12.24-71.77-12.24-37.05,0-73.7,12.91-74.07,13A1.16,1.16,0,0,1,2.83,110.51Z"/><path class="cls-1" d="M77.17,140.49a55.52,55.52,0,0,1-17.39-2.78,1.13,1.13,0,1,1,.71-2.15,53.87,53.87,0,0,0,33.17.06,1.13,1.13,0,0,1,.7,2.16A55.51,55.51,0,0,1,77.17,140.49Z"/><path class="cls-1" d="M23.64,96.19a1.13,1.13,0,0,1-1.11-.92,55.62,55.62,0,1,1,110.26-10.4,56.1,56.1,0,0,1-.95,10.27,1.13,1.13,0,0,1-2.23-.42,53.36,53.36,0,1,0-105.8-9.86,53.72,53.72,0,0,0,.93,10,1.13,1.13,0,0,1-.9,1.33Z"/><path class="cls-1" d="M97.11,91.11H53.94a5.93,5.93,0,0,1-6-5.85V82.52H103v2.74A5.87,5.87,0,0,1,97.11,91.11Z"/><path class="cls-1" d="M89.16,57.24a43.3,43.3,0,0,0-13.15-2c-14.92,0-27,7-27,15.5h54c0-5.18-4.52-9.83-11.42-12.62M58.79,66a1.15,1.15,0,0,1-1.1,1.15h-.1a1.2,1.2,0,0,1-1.2-1.1,2,2,0,0,1,.53-1.53,1.26,1.26,0,0,1,1.73-.1A1.25,1.25,0,0,1,58.79,66Zm12.28-5.13-1.53.23h-.2a1.23,1.23,0,0,1-1.2-1.06,1.2,1.2,0,0,1,1-1.34l1.53-.23a1.2,1.2,0,0,1,1.34,1A1.14,1.14,0,0,1,71.06,60.89ZM75.53,67h-.1l-1.53-.1a1.2,1.2,0,1,1,.2-2.39l1.53.1a1.2,1.2,0,0,1-.1,2.39Zm13.15-4.8a1.21,1.21,0,0,1-1.63.48l-2.21-1.25A1.2,1.2,0,1,1,86,59.31l2.21,1.25A1.25,1.25,0,0,1,88.68,62.18Zm6.23,4.37a1.16,1.16,0,0,1-1.68,0l-.91-.76A1.22,1.22,0,1,1,94,64.06l.86.81A1.25,1.25,0,0,1,94.91,66.55Z"/><path class="cls-1" d="M55.19,73.33H51.12a3.5,3.5,0,1,0,0,7H62.41Z"/><path class="cls-1" d="M99.69,73.33h-30l-6.84,7H99.7a3.5,3.5,0,1,0,0-7Z"/><polygon class="cls-1" points="67.08 73.74 62.35 78.75 57.34 73.74 67.08 73.74"/></svg>